<svg xmlns="http://www.w3.org/2000/svg" width="1186.667" height="1186.667" preserveAspectRatio="xMidYMid meet" version="1.0" viewBox="0 0 890 890"><metadata>Created by potrace 1.11, written by Peter Selinger 2001-2013</metadata><g fill="#000" stroke="none"><path d="M4620 8883 c-62 -20 -125 -52 -180 -91 -72 -51 -261 -236 -361 -352 -35 -41 -79 -91 -97 -111 -86 -95 -488 -625 -750 -990 -159 -222 -274 -382 -317 -444 -550 -786 -879 -1293 -1092 -1685 -44 -81 -112 -203 -123 -220 -6 -8 -62 -100 -126 -205 -124 -201 -172 -280 -216 -348 -15 -23 -33 -53 -41 -67 -8 -14 -85 -145 -171 -292 -86 -147 -156 -270 -156 -274 0 -4 -6 -15 -14 -23 -7 -9 -28 -43 -45 -76 -18 -33 -36 -67 -41 -75 -25 -40 -80 -139 -80 -144 0 -3 28 12 63 34 102 64 371 162 482 176 11 1 40 7 65 13 25 5 70 13 100 16 30 4 58 9 61 13 3 4 28 48 54 97 26 50 64 122 85 160 20 39 63 120 95 180 67 128 215 405 258 485 16 30 52 98 80 150 27 52 62 118 77 145 15 28 44 82 65 120 68 127 137 253 233 425 61 109 152 260 282 470 6 8 19 31 30 50 11 19 25 42 30 50 5 8 98 166 206 350 414 707 616 1036 694 1130 20 25 103 144 183 265 88 134 170 245 209 285 35 36 88 93 117 128 61 72 128 122 163 122 21 0 95 -39 373 -194 55 -31 498 -282 560 -317 22 -12 90 -50 150 -84 61 -34 149 -85 196 -112 48 -28 93 -53 100 -57 8 -3 32 -17 54 -30 22 -12 67 -38 100 -56 33 -18 72 -41 87 -52 14 -10 29 -18 33 -18 4 0 49 -25 100 -55 52 -30 97 -55 100 -55 4 0 19 -8 33 -19 15 -10 47 -29 72 -43 51 -28 277 -155 330 -185 19 -11 59 -34 88 -52 29 -17 55 -31 57 -31 2 0 61 -33 132 -74 70 -40 148 -84 173 -98 25 -14 95 -54 155 -88 61 -35 126 -72 145 -82 269 -150 321 -187 299 -214 -6 -8 -16 -14 -21 -14 -6 0 -22 -8 -36 -19 -67 -47 -278 -146 -396 -186 -283 -95 -537 -112 -883 -60 -18 3 -50 7 -70 10 -21 3 -61 10 -89 16 -28 5 -64 12 -80 15 -56 9 -259 56 -344 79 -47 13 -98 26 -115 29 -16 3 -54 10 -84 16 -170 32 -553 35 -696 4 -11 -2 -31 -6 -45 -8 -14 -2 -45 -9 -70 -15 -25 -5 -56 -12 -70 -14 -100 -18 -328 -110 -545 -219 -300 -151 -393 -205 -542 -317 -182 -137 -251 -202 -362 -341 -96 -119 -121 -159 -126 -203 -13 -102 114 -71 355 88 84 55 216 150 230 165 3 3 21 16 40 29 20 13 1 -10 -45 -56 -82 -81 -235 -246 -296 -318 -19 -22 -36 -42 -40 -45 -3 -3 -22 -27 -42 -54 -68 -89 -44 -133 65 -122 64 7 127 29 203 72 66 36 218 136 227 149 4 5 8 6 8 2 0 -5 -27 -39 -61 -75 -34 -37 -80 -93 -104 -124 -39 -52 -43 -63 -45 -120 -4 -147 -1 -176 24 -252 51 -152 151 -292 348 -491 l119 -120 -23 -18 c-82 -66 -106 -86 -142 -116 -23 -18 -43 -36 -46 -40 -10 -14 -248 -199 -315 -246 -172 -119 -398 -240 -555 -298 -141 -52 -158 -57 -173 -49 -7 3 227 142 240 142 7 0 321 208 349 231 47 39 156 151 197 201 92 113 64 179 -74 172 -72 -4 -256 -75 -556 -215 -70 -33 -243 -84 -318 -95 -27 -3 -59 -8 -70 -10 -40 -8 -238 -14 -585 -20 -195 -2 -371 -6 -390 -8 -19 -2 -75 -7 -125 -10 -49 -4 -97 -9 -105 -11 -8 -2 -37 -7 -65 -11 -155 -20 -350 -85 -540 -181 -157 -79 -199 -109 -220 -156 -17 -39 -53 -117 -125 -272 -15 -33 -40 -87 -55 -120 -15 -33 -61 -133 -102 -223 -42 -90 -72 -167 -67 -171 5 -5 128 -79 274 -166 146 -87 297 -177 336 -201 40 -24 82 -50 95 -57 30 -15 865 -513 899 -535 14 -9 34 -22 45 -28 28 -15 394 -233 425 -253 14 -8 34 -21 45 -27 11 -5 104 -61 207 -122 102 -62 191 -112 196 -112 6 0 12 -3 14 -8 2 -4 138 -88 303 -186 165 -98 311 -186 325 -195 35 -22 54 -34 87 -52 120 -66 537 -319 572 -347 51 -42 93 -47 166 -22 121 42 242 139 443 357 200 218 315 362 649 813 26 36 51 69 56 75 118 155 472 651 761 1065 130 187 501 747 570 860 47 78 106 174 116 190 38 61 76 128 185 325 48 88 96 172 106 187 11 14 19 28 19 31 0 6 152 254 225 367 27 41 108 176 182 300 73 124 138 232 143 240 13 21 161 279 181 315 9 17 46 82 82 145 35 63 63 117 61 119 -2 2 -12 -3 -21 -12 -51 -45 -331 -162 -434 -181 -13 -2 -42 -9 -64 -14 -22 -6 -56 -13 -75 -16 -19 -3 -46 -8 -60 -10 -14 -3 -45 -7 -69 -10 -24 -3 -45 -6 -46 -8 -4 -5 -120 -225 -243 -458 -30 -58 -87 -166 -127 -240 -40 -74 -96 -180 -125 -235 -29 -55 -81 -152 -115 -215 -34 -63 -82 -151 -105 -195 -137 -256 -308 -558 -386 -682 -49 -79 -93 -151 -99 -160 -5 -10 -41 -71 -80 -136 -38 -65 -78 -132 -89 -150 -85 -147 -161 -277 -177 -299 -11 -15 -19 -29 -19 -32 0 -6 -155 -268 -328 -556 -139 -231 -253 -410 -276 -432 -25 -26 -115 -157 -202 -293 -48 -77 -91 -142 -94 -145 -3 -3 -23 -27 -45 -55 -22 -27 -58 -68 -80 -91 -22 -22 -62 -67 -90 -100 -66 -77 -73 -84 -124 -117 -32 -21 -50 -27 -70 -22 -14 3 -89 41 -166 84 -77 43 -162 91 -190 106 -52 29 -273 154 -460 260 -60 34 -184 104 -275 155 -91 51 -182 103 -202 116 -21 13 -40 24 -42 24 -2 0 -78 42 -168 93 -242 138 -418 238 -463 263 -22 12 -105 59 -185 104 -80 46 -165 94 -190 108 -25 14 -74 42 -110 62 -36 20 -85 49 -110 62 -25 14 -130 74 -235 133 -104 60 -219 125 -255 145 -36 20 -100 56 -144 81 -75 42 -136 90 -136 107 0 21 305 176 434 221 106 37 222 69 285 77 25 3 65 9 88 14 46 8 324 6 388 -4 22 -3 61 -8 87 -11 74 -8 137 -18 263 -41 95 -17 197 -40 335 -75 269 -69 383 -84 625 -83 246 1 474 41 706 124 192 68 704 333 820 424 15 12 39 30 55 41 129 92 259 213 355 330 131 160 158 211 135 256 -34 68 -221 -21 -532 -252 -52 -38 -94 -67 -94 -65 0 2 44 48 98 102 194 195 372 408 372 444 0 10 -8 26 -17 36 -22 22 -126 14 -199 -14 -46 -18 -222 -117 -234 -131 -3 -3 -27 -21 -55 -40 -43 -30 -49 -22 -10 14 57 55 175 207 180 233 5 30 -28 54 -75 54 -104 -2 -231 -62 -422 -200 -61 -44 -65 -41 -16 14 96 106 151 189 136 207 -1 1 11 22 28 47 108 158 171 320 179 457 7 126 -29 219 -114 296 -38 35 -64 49 -130 74 -22 8 -20 12 50 68 41 32 103 84 139 115 109 95 375 284 440 313 8 4 31 17 50 28 120 74 437 208 493 209 20 0 2 -18 -40 -40 -27 -13 -88 -48 -137 -77 -49 -29 -90 -53 -93 -53 -2 0 -63 -39 -136 -86 -178 -117 -269 -195 -366 -314 -20 -25 -39 -47 -43 -51 -5 -3 -11 -26 -14 -51 -6 -41 -4 -48 18 -62 33 -22 103 -26 164 -10 52 13 337 131 453 188 60 29 183 76 216 82 6 1 28 7 50 12 46 13 141 28 235 37 36 4 222 8 415 10 192 2 386 6 430 9 44 3 114 8 155 11 275 19 484 76 735 202 176 88 204 109 235 177 52 116 72 161 107 236 82 175 216 467 229 496 l13 32 -62 38 c-34 22 -66 41 -72 43 -5 2 -29 17 -52 32 -23 16 -44 29 -48 29 -4 0 -26 14 -50 30 -24 17 -46 30 -49 30 -3 0 -117 67 -253 149 -137 81 -439 262 -673 401 -234 139 -548 327 -698 416 -150 90 -276 164 -278 164 -3 0 -25 14 -49 30 -24 17 -48 30 -54 30 -6 0 -11 3 -11 8 0 4 -10 12 -23 18 -17 8 -203 118 -347 205 -127 76 -259 155 -275 164 -11 6 -110 64 -220 130 -110 66 -208 124 -217 130 -179 104 -290 172 -366 223 -92 60 -125 71 -172 55z m-375 -3873 c-10 -11 -23 -20 -29 -20 -6 0 0 9 14 20 32 25 38 25 15 0z" transform="translate(0.000000,890.000000) scale(0.100000,-0.100000)"/></g></svg>