<svg xmlns="http://www.w3.org/2000/svg" xmlns:xlink="http://www.w3.org/1999/xlink" id="Layer_1" x="0" y="0" version="1.1" viewBox="0 0 293.2 293.2" xml:space="preserve" style="enable-background:new 0 0 293.2 293.2"><style type="text/css">.st0{fill:#a56433}</style><g><path d="M181.5,44.1c0-19-15.5-34.5-34.5-34.5s-34.5,15.5-34.5,34.5S128,78.6,147,78.6S181.5,63.1,181.5,44.1z M147,67.1c-12.7,0-23-10.3-23-23s10.3-23,23-23c12.7,0,23,10.3,23,23S159.7,67.1,147,67.1z" class="st0"/><path d="M198.7,153.2v-23c0-28.5-23.2-51.7-51.7-51.7s-51.7,23.2-51.7,51.7v23c0,3.2,2.6,5.7,5.7,5.7h91.9 C196.1,159,198.7,156.4,198.7,153.2z M187.2,147.5h-80.4v-17.2c0-22.2,18-40.2,40.2-40.2s40.2,18,40.2,40.2V147.5z" class="st0"/><path d="M41.3,234.8l27.6,13.8v30.9c0,3.2,2.6,5.7,5.7,5.7h60.9c3.2,0,5.7-2.6,5.7-5.7v-73.1c0-18.3-13.5-34-30.7-35.8 c-0.5-0.1-22.2-1.7-32.7-12.2l-15.7-15.7c-4.3-4.3-10.1-6.7-16.2-6.7V90.1c0-12.7-10.3-23-23-23S0,77.4,0,90.1v78 C0,196.3,16,222.2,41.3,234.8L41.3,234.8z M11.5,90.1c0-6.3,5.2-11.5,11.5-11.5s11.5,5.2,11.5,11.5v49c-7,4-11.5,11.6-11.5,19.9 c0,6.1,2.4,11.9,6.7,16.2l29.4,29.4c2.2,2.2,5.9,2.2,8.1,0c2.2-2.2,2.2-5.9,0-8.1l-29.4-29.4c-2.2-2.2-3.4-5.1-3.4-8.1 c0-4.9,3.1-9.2,7.7-10.8c0,0,0,0,0,0h0c4-1.4,8.7-0.6,11.9,2.7l15.7,15.7c10.7,10.7,26.3,13.7,39.5,15.5c0,0,0,0,0.1,0 c11.4,1.2,20.4,12,20.4,24.4v67.3H80.4v-28.7c0-2.2-1.2-4.2-3.2-5.1l-30.8-15.4c-21.5-10.8-34.9-32.4-34.9-56.5V90.1z" class="st0"/><circle cx="263.6" cy="221" r="5.7" class="st0"/><path d="M271,67.1c-12.7,0-23,10.3-23,23V136c-6.1,0-11.9,2.4-16.2,6.7l-15.7,15.7c-9.2,9.2-24,10.7-32.7,12.2 c-17.2,1.8-30.7,17.6-30.7,35.8v73.1c0,3.2,2.6,5.7,5.7,5.7h60.9c3.2,0,5.7-2.6,5.7-5.7v-30.9l18.8-9.4c2.8-1.4,4-4.9,2.6-7.7 c-1.4-2.8-4.9-4-7.7-2.6l-22,11c-1.9,1-3.2,3-3.2,5.1v28.7h-49.4v-67.3c0-12.5,9-23.2,20.4-24.4c0,0,0,0,0.1,0 c13.4-1.8,28.8-4.8,39.5-15.5l15.7-15.7c3.3-3.3,8-4.1,11.9-2.7h0c0,0,0,0,0,0c4.6,1.6,7.7,6,7.7,10.8c0,3.1-1.2,5.9-3.4,8.1 l-29.4,29.4c-2.2,2.2-2.2,5.9,0,8.1c2.2,2.2,5.9,2.2,8.1,0l29.4-29.4c4.3-4.3,6.7-10.1,6.7-16.2c0-8.3-4.5-15.8-11.5-19.9v-49 c0-6.3,5.2-11.5,11.5-11.5s11.5,5.2,11.5,11.5v78c0,10.5-2.7,20.9-7.7,30.2c-1.5,2.8-0.5,6.3,2.3,7.8c2.8,1.5,6.3,0.5,7.8-2.3 c5.9-10.9,9.1-23.2,9.1-35.6v-78C294,77.4,283.7,67.1,271,67.1z" class="st0"/></g></svg>