<?xml version="1.0" encoding="utf-8"?>
<!-- Generator: Adobe Illustrator 24.2.0, SVG Export Plug-In . SVG Version: 6.00 Build 0)  -->
<svg version="1.1" id="Layer_1" xmlns="http://www.w3.org/2000/svg" xmlns:xlink="http://www.w3.org/1999/xlink" x="0px" y="0px"
	 viewBox="0 0 293.2 293.2" style="enable-background:new 0 0 293.2 293.2;" xml:space="preserve">
<style type="text/css">
	.st0{fill:#A56433;}
</style>
<g>
	<g>
		<g>
			<path class="st0" d="M146.6,133.7c-0.8,0-1.6,0.1-2.4,0.2l-39.3-68.1c-1.2-2.1-3.8-2.8-5.9-1.6c-2.1,1.2-2.8,3.8-1.6,5.9
				l39.3,68.1c-1.9,2.3-3.1,5.2-3.1,8.4c0,5.6,3.6,10.4,8.6,12.1v95.8c0,2.4,1.9,4.3,4.3,4.3s4.3-1.9,4.3-4.3v-95.8
				c5-1.8,8.6-6.5,8.6-12.1C159.5,139.5,153.7,133.7,146.6,133.7z M146.6,150.9c-2.4,0-4.3-1.9-4.3-4.3s1.9-4.3,4.3-4.3
				s4.3,1.9,4.3,4.3S149,150.9,146.6,150.9z"/>
		</g>
	</g>
	<g>
		<g>
			<path class="st0" d="M250.3,42.9C222.6,15.2,185.8,0,146.6,0s-76,15.2-103.7,42.9S0,107.4,0,146.6s15.2,76,42.9,103.7
				s64.5,42.9,103.7,42.9s76-15.2,103.7-42.9s42.9-64.5,42.9-103.7S278,70.6,250.3,42.9z M146.6,284.6c-76.1,0-138-61.9-138-138
				s61.9-138,138-138s138,61.9,138,138S222.7,284.6,146.6,284.6z"/>
		</g>
	</g>
	<g>
		<g>
			<circle class="st0" cx="146.6" cy="38.7" r="4.3"/>
		</g>
	</g>
	<g>
		<g>
			<circle class="st0" cx="92.6" cy="53.1" r="4.3"/>
		</g>
	</g>
	<g>
		<g>
			<circle class="st0" cx="53.1" cy="92.6" r="4.3"/>
		</g>
	</g>
	<g>
		<g>
			<circle class="st0" cx="38.7" cy="146.6" r="4.3"/>
		</g>
	</g>
	<g>
		<g>
			<circle class="st0" cx="53.1" cy="200.6" r="4.3"/>
		</g>
	</g>
	<g>
		<g>
			<circle class="st0" cx="92.6" cy="240.1" r="4.3"/>
		</g>
	</g>
	<g>
		<g>
			<circle class="st0" cx="200.6" cy="240.1" r="4.3"/>
		</g>
	</g>
	<g>
		<g>
			<circle class="st0" cx="240.1" cy="200.6" r="4.3"/>
		</g>
	</g>
	<g>
		<g>
			<circle class="st0" cx="254.5" cy="146.6" r="4.3"/>
		</g>
	</g>
	<g>
		<g>
			<circle class="st0" cx="240.1" cy="92.6" r="4.3"/>
		</g>
	</g>
	<g>
		<g>
			<circle class="st0" cx="200.6" cy="53.1" r="4.3"/>
		</g>
	</g>
	<g>
		<g>
			<path class="st0" d="M238.1,55.1c-24.4-24.4-56.9-37.9-91.5-37.9c-31.3,0-61.5,11.3-85,31.8c-1.8,1.6-2,4.3-0.4,6.1
				c1.6,1.8,4.3,2,6.1,0.4c22-19.2,50.2-29.7,79.4-29.7c66.6,0,120.8,54.2,120.8,120.8s-54.2,120.8-120.8,120.8
				S25.8,213.2,25.8,146.6c0-29.2,10.6-57.4,29.7-79.4c1.6-1.8,1.4-4.5-0.4-6.1c-1.8-1.6-4.5-1.4-6.1,0.4
				c-20.5,23.5-31.8,53.7-31.8,85c0,34.6,13.5,67.1,37.9,91.5S112,276,146.6,276s67.1-13.5,91.5-37.9s37.9-56.9,37.9-91.5
				S262.6,79.5,238.1,55.1z"/>
		</g>
	</g>
</g>
</svg>
